<svg id="svg" version="1.1" xmlns="http://www.w3.org/2000/svg" xmlns:xlink="http://www.w3.org/1999/xlink" width="400" height="400" viewBox="0, 0, 400,400"><g id="svgg"><path id="path0" d="M172.000 112.743 C 171.450 112.907,170.331 113.347,169.513 113.720 C 168.695 114.094,167.918 114.400,167.786 114.400 C 166.622 114.400,160.922 120.052,160.525 121.600 C 160.384 122.150,159.893 123.110,159.434 123.734 C 158.129 125.507,158.177 135.282,159.500 136.964 C 159.995 137.593,160.400 138.417,160.400 138.796 C 160.400 140.047,165.750 145.600,166.955 145.600 C 167.165 145.600,167.621 145.851,167.969 146.157 C 170.489 148.380,192.080 150.073,193.480 148.158 C 194.690 146.504,193.977 124.726,192.666 123.270 C 192.334 122.902,191.946 122.132,191.803 121.560 C 191.368 119.816,186.073 114.832,184.000 114.215 C 183.450 114.051,182.553 113.634,182.008 113.289 C 180.915 112.597,173.796 112.209,172.000 112.743 M218.800 112.646 C 218.470 112.771,217.437 113.216,216.504 113.636 C 215.572 114.056,214.709 114.400,214.587 114.400 C 214.072 114.400,209.982 117.679,209.321 118.622 C 208.924 119.188,208.207 120.146,207.726 120.752 C 207.245 121.358,206.726 122.382,206.572 123.027 C 206.418 123.672,206.002 124.534,205.646 124.942 C 204.658 126.077,204.661 180.373,205.649 182.200 C 206.006 182.860,206.600 184.030,206.969 184.800 C 208.277 187.528,208.787 188.259,210.463 189.811 C 214.923 193.937,223.380 196.176,227.147 194.228 C 227.814 193.882,228.687 193.600,229.087 193.600 C 229.487 193.600,230.477 193.150,231.286 192.600 C 232.095 192.050,232.941 191.600,233.165 191.600 C 233.813 191.600,237.183 187.943,238.023 186.327 C 238.444 185.517,238.971 184.741,239.194 184.604 C 239.417 184.466,239.602 183.958,239.605 183.476 C 239.608 182.994,239.968 181.459,240.405 180.064 C 241.639 176.130,241.634 130.663,240.400 126.800 C 239.960 125.423,239.597 124.004,239.593 123.648 C 239.585 122.979,237.810 120.153,236.700 119.043 C 236.354 118.697,236.010 118.276,235.936 118.107 C 235.645 117.449,231.746 114.492,230.800 114.212 C 230.250 114.050,229.350 113.626,228.800 113.270 C 227.787 112.616,220.145 112.139,218.800 112.646 M125.400 159.445 C 124.520 159.780,123.198 160.207,122.461 160.394 C 121.725 160.580,120.723 161.108,120.236 161.567 C 119.748 162.025,119.195 162.400,119.008 162.400 C 118.455 162.400,114.752 166.497,114.127 167.800 C 113.811 168.460,113.295 169.450,112.982 170.000 C 112.668 170.550,112.405 171.540,112.396 172.200 C 112.388 172.860,112.213 174.120,112.008 175.000 C 111.532 177.042,112.575 184.042,113.427 184.519 C 113.742 184.695,114.000 185.076,114.000 185.365 C 114.000 185.881,115.697 188.284,117.091 189.742 C 118.210 190.913,121.613 192.978,123.800 193.813 C 126.528 194.856,177.982 195.243,180.400 194.239 C 181.170 193.920,182.289 193.553,182.886 193.425 C 184.047 193.176,187.154 191.220,187.991 190.211 C 188.270 189.875,188.746 189.600,189.049 189.600 C 189.352 189.600,189.600 189.358,189.600 189.062 C 189.600 188.766,189.955 188.202,190.390 187.809 C 190.824 187.416,191.299 186.717,191.446 186.255 C 191.593 185.793,192.044 184.962,192.449 184.408 C 196.396 179.007,192.922 166.373,186.334 162.168 C 185.527 161.654,184.751 161.045,184.610 160.816 C 184.469 160.587,183.933 160.400,183.420 160.400 C 182.907 160.400,181.703 160.044,180.744 159.609 C 178.362 158.528,128.196 158.379,125.400 159.445 M264.800 159.550 C 264.030 159.958,262.725 160.415,261.900 160.565 C 261.075 160.714,260.400 160.982,260.400 161.160 C 260.400 161.338,259.590 161.996,258.600 162.622 C 257.610 163.248,256.800 163.870,256.800 164.004 C 256.800 164.139,256.396 164.683,255.902 165.213 C 254.360 166.869,253.257 168.714,252.749 170.489 C 252.480 171.430,252.066 172.452,251.830 172.761 C 251.365 173.367,250.967 192.217,251.384 193.880 L 251.621 194.825 262.511 194.707 C 274.240 194.580,274.718 194.503,279.000 192.063 C 283.935 189.250,288.021 181.417,287.459 175.846 C 287.102 172.306,284.306 165.600,283.187 165.600 C 283.004 165.600,282.746 165.261,282.615 164.846 C 282.483 164.431,281.616 163.585,280.688 162.967 C 279.759 162.348,278.820 161.645,278.600 161.403 C 276.751 159.377,267.473 158.131,264.800 159.550 M127.000 205.818 C 126.120 206.126,124.748 206.477,123.951 206.597 C 123.155 206.718,122.092 207.173,121.590 207.608 C 121.088 208.044,120.463 208.400,120.201 208.400 C 119.379 208.400,114.996 212.972,113.847 215.028 C 111.476 219.271,111.325 228.599,113.581 231.467 C 114.032 232.040,114.400 232.717,114.400 232.973 C 114.400 233.393,117.532 236.731,119.590 238.503 C 120.453 239.246,122.500 240.091,125.800 241.065 C 128.529 241.870,133.319 241.564,135.517 240.442 C 136.425 239.979,137.431 239.600,137.753 239.600 C 138.075 239.600,138.873 239.150,139.527 238.600 C 140.181 238.050,140.870 237.592,141.058 237.582 C 141.612 237.553,145.600 232.384,145.600 231.694 C 145.600 231.347,145.890 230.743,146.244 230.351 C 147.454 229.014,148.256 208.978,147.210 206.226 L 146.820 205.200 137.710 205.229 C 130.998 205.251,128.179 205.406,127.000 205.818 M173.922 205.763 C 173.109 206.053,171.689 206.411,170.768 206.559 C 169.846 206.706,168.642 207.181,168.092 207.613 C 167.542 208.046,166.891 208.401,166.646 208.402 C 165.608 208.408,160.400 214.014,160.400 215.125 C 160.400 215.428,159.995 216.244,159.500 216.938 L 158.600 218.200 158.600 246.858 C 158.600 273.881,158.641 275.561,159.319 276.311 C 159.715 276.748,160.223 277.773,160.448 278.589 C 160.843 280.019,165.984 285.600,166.906 285.600 C 167.114 285.600,168.210 286.067,169.342 286.639 C 171.217 287.585,171.827 287.678,176.200 287.678 C 180.573 287.678,181.183 287.585,183.058 286.639 C 184.190 286.067,185.225 285.600,185.358 285.600 C 185.971 285.600,191.600 280.085,191.601 279.482 C 191.602 279.217,191.969 278.399,192.417 277.665 C 193.780 275.429,193.975 271.540,193.985 246.400 C 193.994 221.373,193.816 217.988,192.381 215.973 C 191.951 215.370,191.600 214.613,191.600 214.290 C 191.600 213.484,186.453 208.400,185.637 208.400 C 185.274 208.400,184.686 208.059,184.329 207.642 C 183.972 207.225,182.897 206.759,181.940 206.606 C 180.983 206.453,179.429 206.075,178.486 205.764 C 176.412 205.082,175.830 205.081,173.922 205.763 M220.800 205.596 C 220.470 205.806,219.210 206.185,218.000 206.436 C 216.790 206.688,215.322 207.233,214.738 207.647 C 214.154 208.061,213.484 208.400,213.248 208.400 C 212.684 208.400,208.872 212.046,208.171 213.256 C 204.892 218.914,203.978 225.604,205.967 229.385 C 206.425 230.256,206.800 231.282,206.800 231.665 C 206.800 232.047,207.029 232.504,207.310 232.680 C 207.590 232.856,208.159 233.540,208.574 234.200 C 210.679 237.547,214.380 239.905,219.600 241.226 C 221.473 241.701,271.004 241.686,272.800 241.210 C 277.947 239.848,284.335 235.498,284.388 233.320 C 284.395 233.056,284.626 232.696,284.903 232.520 C 285.683 232.023,287.615 225.616,287.607 223.551 C 287.588 218.568,281.827 208.400,279.022 208.400 C 278.739 208.400,278.050 208.040,277.491 207.600 C 276.931 207.160,276.183 206.800,275.827 206.800 C 275.471 206.800,274.156 206.440,272.904 206.000 C 270.364 205.107,222.150 204.733,220.800 205.596 M204.965 253.398 C 204.393 255.674,205.003 274.529,205.682 275.600 C 206.031 276.150,206.452 277.050,206.617 277.600 C 207.076 279.131,210.452 283.457,211.800 284.241 C 212.460 284.626,213.090 285.048,213.200 285.180 C 215.216 287.597,226.197 288.757,229.297 286.880 C 230.014 286.446,231.027 285.961,231.550 285.803 C 232.600 285.484,238.000 280.518,238.000 279.871 C 238.000 279.647,238.272 279.162,238.605 278.795 C 239.807 277.466,241.294 270.516,240.819 268.449 C 238.950 260.325,236.445 256.821,230.400 253.869 L 227.800 252.600 216.516 252.468 L 205.231 252.335 204.965 253.398 " stroke="none" fill="#f7f7f7" fill-rule="evenodd"></path><path id="path1" d="M0.000 200.000 L 0.000 400.000 200.000 400.000 L 400.000 400.000 400.000 200.000 L 400.000 0.000 200.000 0.000 L 0.000 0.000 0.000 200.000 M183.000 112.082 C 186.662 113.793,190.800 116.872,190.800 117.885 C 190.800 118.153,191.160 118.565,191.600 118.800 C 192.040 119.035,192.400 119.511,192.400 119.856 C 192.400 120.202,192.850 121.019,193.400 121.673 C 193.950 122.327,194.400 123.348,194.400 123.942 C 194.400 124.536,194.710 125.465,195.089 126.006 C 195.932 127.210,196.412 146.534,195.648 148.500 L 195.220 149.600 183.372 149.600 C 173.701 149.600,171.328 149.492,170.462 149.013 C 169.878 148.689,168.770 148.145,168.000 147.802 C 167.230 147.459,166.153 146.921,165.607 146.606 C 163.866 145.602,160.001 141.547,159.744 140.454 C 159.607 139.874,159.138 139.006,158.701 138.525 C 158.240 138.016,157.821 136.844,157.701 135.725 C 157.588 134.666,157.339 133.602,157.148 133.360 C 156.400 132.411,156.287 129.310,156.951 127.978 C 157.308 127.262,157.600 126.192,157.600 125.598 C 157.600 124.267,158.361 122.000,158.808 122.000 C 158.990 122.000,159.346 121.369,159.601 120.597 C 159.856 119.825,160.410 119.009,160.832 118.783 C 161.254 118.557,161.600 118.155,161.600 117.891 C 161.600 117.167,165.610 113.684,166.779 113.392 C 167.341 113.252,168.130 112.840,168.533 112.477 C 169.744 111.385,180.860 111.081,183.000 112.082 M229.800 112.081 C 233.767 113.940,238.752 118.020,238.789 119.438 C 238.795 119.679,239.160 120.202,239.600 120.600 C 240.040 120.998,240.400 121.812,240.400 122.408 C 240.400 123.004,240.805 124.007,241.300 124.636 L 242.200 125.780 242.200 153.390 L 242.200 181.000 241.300 182.447 C 240.805 183.243,240.400 184.340,240.400 184.885 C 240.400 185.430,240.040 186.202,239.600 186.600 C 239.160 186.998,238.800 187.486,238.800 187.683 C 238.800 188.232,236.655 190.800,236.196 190.800 C 235.974 190.800,235.568 191.160,235.293 191.600 C 235.018 192.040,234.596 192.400,234.354 192.400 C 234.113 192.400,233.381 192.850,232.727 193.400 C 232.073 193.950,231.252 194.400,230.901 194.400 C 230.550 194.400,229.964 194.671,229.599 195.001 C 227.955 196.489,217.666 196.523,216.189 195.046 C 215.834 194.691,215.107 194.400,214.575 194.400 C 214.040 194.400,213.383 194.042,213.107 193.600 C 212.832 193.160,212.381 192.800,212.105 192.800 C 210.928 192.800,205.600 186.731,205.600 185.390 C 205.600 185.210,205.344 184.779,205.030 184.431 C 202.357 181.470,202.303 125.863,204.970 122.812 C 205.264 122.476,205.628 121.796,205.779 121.302 C 205.929 120.809,206.266 120.174,206.526 119.892 C 206.787 119.611,207.623 118.575,208.385 117.590 C 209.147 116.606,209.919 115.738,210.100 115.662 C 210.281 115.586,210.918 115.115,211.515 114.616 C 212.112 114.118,213.050 113.574,213.600 113.407 C 214.150 113.241,214.933 112.812,215.340 112.453 C 216.557 111.379,227.692 111.093,229.800 112.081 M182.751 158.700 C 183.420 159.195,184.318 159.600,184.747 159.600 C 185.478 159.600,190.024 162.955,190.348 163.733 C 190.430 163.929,190.910 164.449,191.416 164.889 C 191.922 165.328,192.444 166.123,192.578 166.654 C 192.711 167.186,193.176 167.976,193.610 168.410 C 194.045 168.845,194.400 169.700,194.400 170.311 C 194.400 170.922,194.676 171.816,195.014 172.298 C 195.861 173.508,195.868 179.276,195.024 181.287 C 194.681 182.105,194.400 183.140,194.400 183.587 C 194.400 184.034,194.045 184.755,193.610 185.190 C 193.176 185.624,192.711 186.414,192.578 186.946 C 192.444 187.477,191.900 188.291,191.368 188.753 C 190.835 189.216,190.400 189.764,190.400 189.970 C 190.400 190.177,190.049 190.457,189.620 190.594 C 189.192 190.730,188.730 191.192,188.594 191.620 C 188.457 192.049,188.116 192.400,187.835 192.400 C 187.554 192.400,186.801 192.850,186.162 193.400 C 185.523 193.949,184.781 194.399,184.512 194.400 C 184.244 194.400,183.254 194.805,182.312 195.300 L 180.600 196.200 153.000 196.200 C 125.552 196.200,125.390 196.195,123.600 195.337 C 122.610 194.862,121.419 194.363,120.953 194.227 C 120.487 194.091,119.784 193.624,119.391 193.190 C 118.998 192.755,118.512 192.400,118.312 192.400 C 117.847 192.400,113.600 188.168,113.600 187.704 C 113.600 187.512,113.150 186.745,112.600 186.000 C 112.050 185.255,111.600 184.145,111.600 183.535 C 111.600 182.924,111.217 181.690,110.749 180.791 C 109.732 178.842,109.818 173.726,110.887 172.498 C 111.222 172.114,111.597 170.996,111.721 170.014 C 111.845 169.032,112.203 168.041,112.515 167.812 C 112.828 167.584,113.200 167.031,113.342 166.583 C 113.613 165.730,117.307 161.600,117.800 161.600 C 117.956 161.600,118.619 161.150,119.273 160.600 C 119.927 160.050,120.783 159.600,121.177 159.600 C 121.570 159.600,122.330 159.255,122.865 158.834 C 124.315 157.695,124.062 157.703,153.867 157.753 L 181.534 157.800 182.751 158.700 M275.867 158.634 C 276.490 159.093,277.499 159.592,278.108 159.744 C 279.681 160.135,281.967 161.862,283.600 163.893 C 284.370 164.851,285.315 165.936,285.700 166.306 C 286.085 166.675,286.400 167.263,286.400 167.611 C 286.400 167.960,286.850 168.855,287.400 169.600 C 288.750 171.430,288.948 181.982,287.664 183.646 C 287.259 184.171,286.730 185.181,286.488 185.891 C 286.246 186.602,285.812 187.481,285.524 187.846 C 284.416 189.248,281.158 192.400,280.816 192.400 C 280.619 192.400,280.205 192.652,279.897 192.960 C 279.589 193.268,278.091 194.111,276.568 194.833 L 273.800 196.145 262.588 196.319 C 252.209 196.481,251.332 196.441,250.788 195.783 C 250.300 195.194,250.202 193.114,250.213 183.565 L 250.225 172.058 251.413 169.529 C 252.066 168.138,252.825 166.856,253.100 166.680 C 253.375 166.504,253.600 166.150,253.600 165.893 C 253.600 165.374,257.590 161.200,258.086 161.200 C 258.259 161.200,258.760 160.840,259.200 160.400 C 259.640 159.960,260.428 159.600,260.951 159.600 C 261.474 159.600,262.127 159.329,262.401 158.998 C 263.763 157.357,273.764 157.087,275.867 158.634 M147.905 204.427 C 149.125 204.852,149.130 204.866,149.417 208.695 C 149.800 213.797,149.445 226.222,148.898 226.884 C 148.664 227.168,148.349 228.120,148.198 229.000 C 148.048 229.880,147.582 231.088,147.163 231.684 C 146.743 232.280,146.400 232.940,146.400 233.150 C 146.400 233.635,145.053 235.273,143.000 237.285 C 140.175 240.054,139.823 240.313,138.500 240.591 C 137.785 240.741,137.200 241.015,137.200 241.201 C 137.200 242.810,123.388 243.093,122.229 241.508 C 121.992 241.183,121.348 240.775,120.798 240.602 C 118.957 240.022,113.600 235.238,113.600 234.174 C 113.600 233.922,113.150 233.231,112.600 232.638 C 112.008 231.999,111.600 231.082,111.600 230.392 C 111.600 229.750,111.217 228.491,110.750 227.593 C 109.689 225.559,109.804 220.122,110.934 218.873 C 111.300 218.468,111.600 217.566,111.600 216.869 C 111.600 216.133,111.936 215.264,112.400 214.800 C 112.840 214.360,113.200 213.736,113.200 213.414 C 113.200 213.091,113.740 212.275,114.400 211.600 C 115.060 210.925,115.600 210.199,115.600 209.986 C 115.600 209.774,115.806 209.600,116.058 209.600 C 116.310 209.600,116.895 209.226,117.358 208.768 C 118.734 207.408,121.737 205.615,122.651 205.607 C 123.119 205.603,123.719 205.338,123.985 205.018 C 124.570 204.313,126.558 204.179,138.040 204.077 C 143.338 204.030,147.154 204.165,147.905 204.427 M181.600 204.996 C 181.930 205.272,182.836 205.612,183.613 205.751 C 184.390 205.890,185.333 206.363,185.709 206.802 C 186.085 207.241,186.635 207.600,186.932 207.600 C 187.714 207.600,192.400 212.404,192.400 213.206 C 192.400 213.578,192.850 214.369,193.400 214.962 C 193.950 215.556,194.400 216.491,194.400 217.040 C 194.400 217.590,194.715 218.616,195.100 219.320 C 196.177 221.289,196.177 272.311,195.100 274.280 C 194.715 274.984,194.400 276.005,194.400 276.549 C 194.400 277.093,193.950 278.073,193.400 278.727 C 192.850 279.381,192.400 280.144,192.400 280.424 C 192.400 281.004,191.813 281.703,189.019 284.450 C 187.930 285.521,186.670 286.513,186.219 286.654 C 185.769 286.795,184.971 287.245,184.446 287.655 C 183.921 288.065,182.841 288.408,182.046 288.418 C 181.251 288.427,179.880 288.695,179.000 289.012 C 177.154 289.676,174.341 289.781,173.766 289.206 C 173.550 288.990,172.279 288.663,170.943 288.480 C 169.458 288.277,168.083 287.809,167.403 287.274 C 166.792 286.793,166.106 286.400,165.880 286.400 C 165.426 286.400,164.891 285.964,162.800 283.888 C 159.862 280.972,157.600 277.133,157.600 275.062 C 157.600 274.531,157.330 273.451,157.000 272.662 C 156.120 270.555,156.103 223.888,156.981 220.946 C 157.301 219.876,157.671 218.315,157.804 217.477 C 157.936 216.639,158.395 215.654,158.822 215.288 C 159.250 214.922,159.600 214.241,159.600 213.774 C 159.600 212.690,164.544 207.600,165.597 207.600 C 166.023 207.600,166.560 207.248,166.791 206.817 C 167.035 206.361,167.834 205.920,168.705 205.760 C 169.527 205.608,170.325 205.292,170.477 205.056 C 171.160 203.999,180.352 203.950,181.600 204.996 M274.904 204.900 C 275.491 205.285,276.324 205.600,276.755 205.600 C 277.186 205.600,278.073 206.050,278.727 206.600 C 279.381 207.150,280.082 207.600,280.286 207.600 C 280.489 207.600,281.036 208.005,281.501 208.500 C 281.966 208.995,282.898 209.842,283.573 210.381 C 284.248 210.921,284.800 211.568,284.800 211.819 C 284.800 212.070,285.150 212.593,285.577 212.979 C 286.005 213.366,286.473 214.223,286.618 214.882 C 286.763 215.542,287.223 216.423,287.641 216.841 C 288.813 218.013,288.788 229.212,287.610 230.390 C 287.176 230.824,286.698 231.667,286.548 232.263 C 286.044 234.273,284.385 236.290,280.595 239.500 C 280.010 239.995,279.200 240.400,278.795 240.400 C 278.389 240.400,277.816 240.642,277.520 240.937 C 275.847 242.610,276.097 242.594,249.497 242.729 C 221.861 242.868,216.447 242.631,215.136 241.223 C 214.714 240.771,214.031 240.400,213.618 240.400 C 211.988 240.400,205.600 233.771,205.600 232.080 C 205.600 231.754,205.348 231.288,205.040 231.044 C 203.268 229.639,203.209 218.082,204.963 216.000 C 205.241 215.670,205.694 214.828,205.971 214.129 C 206.247 213.430,206.727 212.760,207.037 212.641 C 207.346 212.522,207.600 212.163,207.600 211.843 C 207.600 211.230,211.605 207.600,212.281 207.600 C 212.498 207.600,212.993 207.250,213.379 206.823 C 213.766 206.395,214.649 205.924,215.341 205.776 C 216.034 205.629,216.853 205.303,217.161 205.054 C 218.735 203.782,272.977 203.637,274.904 204.900 M227.639 251.059 C 227.948 251.311,228.984 251.750,229.942 252.034 C 230.900 252.319,231.774 252.787,231.884 253.076 C 231.995 253.364,232.390 253.600,232.763 253.600 C 234.425 253.600,240.149 260.203,240.520 262.550 C 240.655 263.402,241.088 264.456,241.483 264.892 C 242.523 266.041,242.544 274.336,241.510 275.478 C 241.131 275.897,240.675 276.861,240.497 277.620 C 239.820 280.500,235.097 286.110,232.879 286.666 C 232.332 286.803,231.579 287.221,231.206 287.594 C 230.789 288.011,229.546 288.375,227.981 288.539 C 226.581 288.685,225.256 288.984,225.038 289.202 C 224.528 289.712,221.081 289.721,220.575 289.215 C 220.363 289.003,219.112 288.709,217.795 288.563 C 216.413 288.409,215.062 287.999,214.600 287.594 C 214.160 287.208,213.350 286.755,212.800 286.589 C 212.250 286.422,211.565 285.951,211.277 285.543 C 210.990 285.134,210.495 284.800,210.177 284.800 C 209.860 284.800,209.600 284.619,209.600 284.397 C 209.600 284.176,209.150 283.603,208.600 283.125 C 208.050 282.647,207.600 282.013,207.600 281.715 C 207.600 281.418,207.346 281.078,207.037 280.959 C 206.727 280.840,206.247 280.170,205.971 279.471 C 205.694 278.772,205.235 277.924,204.950 277.586 C 203.911 276.355,203.203 269.671,203.202 261.074 C 203.200 252.941,203.386 251.516,204.560 250.690 C 205.284 250.180,226.989 250.527,227.639 251.059 " stroke="none" fill="#333333" fill-rule="evenodd"></path><path id="path2" d="M171.200 112.374 C 153.559 116.512,153.413 142.690,171.000 148.242 C 173.569 149.053,193.913 149.418,194.666 148.667 C 195.401 147.933,195.052 129.203,194.245 126.052 C 191.646 115.903,181.594 109.936,171.200 112.374 M217.775 112.385 C 213.127 113.380,208.628 117.456,205.614 123.400 L 204.600 125.400 204.600 153.600 L 204.600 181.800 205.586 183.800 C 209.424 191.580,215.093 195.400,222.800 195.400 C 226.503 195.400,232.400 193.781,232.400 192.764 C 232.400 192.593,232.783 192.332,233.251 192.184 C 235.571 191.447,238.874 186.966,240.762 181.992 C 242.019 178.680,242.053 127.995,240.800 125.400 C 240.375 124.520,240.021 123.520,240.014 123.178 C 239.966 121.010,234.734 115.394,231.018 113.523 C 228.383 112.197,221.438 111.600,217.775 112.385 M182.008 113.289 C 182.553 113.634,183.450 114.051,184.000 114.215 C 186.073 114.832,191.368 119.816,191.803 121.560 C 191.946 122.132,192.334 122.902,192.666 123.270 C 193.977 124.726,194.690 146.504,193.480 148.158 C 192.080 150.073,170.489 148.380,167.969 146.157 C 167.621 145.851,167.165 145.600,166.955 145.600 C 165.750 145.600,160.400 140.047,160.400 138.796 C 160.400 138.417,159.995 137.593,159.500 136.964 C 158.177 135.282,158.129 125.507,159.434 123.734 C 159.893 123.110,160.384 122.150,160.525 121.600 C 160.922 120.052,166.622 114.400,167.786 114.400 C 167.918 114.400,168.695 114.094,169.513 113.720 C 172.024 112.573,172.861 112.442,177.008 112.553 C 179.809 112.628,181.314 112.850,182.008 113.289 M228.800 113.270 C 229.350 113.626,230.250 114.050,230.800 114.212 C 231.746 114.492,235.645 117.449,235.936 118.107 C 236.010 118.276,236.354 118.697,236.700 119.043 C 237.810 120.153,239.585 122.979,239.593 123.648 C 239.597 124.004,239.960 125.423,240.400 126.800 C 241.634 130.663,241.639 176.130,240.405 180.064 C 239.968 181.459,239.608 182.994,239.605 183.476 C 239.602 183.958,239.417 184.466,239.194 184.604 C 238.971 184.741,238.444 185.517,238.023 186.327 C 237.183 187.943,233.813 191.600,233.165 191.600 C 232.941 191.600,232.095 192.050,231.286 192.600 C 230.477 193.150,229.487 193.600,229.087 193.600 C 228.687 193.600,227.814 193.882,227.147 194.228 C 223.380 196.176,214.923 193.937,210.463 189.811 C 208.787 188.259,208.277 187.528,206.969 184.800 C 206.600 184.030,206.006 182.860,205.649 182.200 C 204.661 180.373,204.658 126.077,205.646 124.942 C 206.002 124.534,206.418 123.672,206.572 123.027 C 206.726 122.382,207.245 121.358,207.726 120.752 C 208.207 120.146,208.924 119.188,209.321 118.622 C 209.982 117.679,214.072 114.400,214.587 114.400 C 214.709 114.400,215.572 114.056,216.504 113.636 C 217.437 113.216,218.470 112.771,218.800 112.646 C 220.145 112.139,227.787 112.616,228.800 113.270 M124.339 158.956 C 123.755 159.262,122.663 159.715,121.911 159.963 C 116.555 161.731,110.833 170.444,110.795 176.889 C 110.787 178.190,112.444 184.486,112.983 185.200 C 113.231 185.530,113.694 186.316,114.010 186.948 C 115.307 189.532,118.837 192.386,123.200 194.377 L 125.400 195.382 152.069 195.504 L 178.738 195.627 181.527 194.652 C 191.264 191.251,196.473 182.146,194.200 172.504 C 192.847 166.768,188.974 162.225,183.200 159.600 L 181.000 158.600 153.200 158.500 C 130.080 158.416,125.221 158.493,124.339 158.956 M264.339 158.959 C 263.755 159.263,262.585 159.740,261.739 160.018 C 258.365 161.126,254.259 165.360,252.058 170.000 C 250.858 172.532,250.152 193.738,251.226 195.031 C 251.611 195.496,253.558 195.600,261.845 195.600 C 276.184 195.600,279.091 194.518,285.238 186.891 C 285.464 186.611,285.916 185.711,286.242 184.891 C 286.569 184.071,287.053 182.967,287.318 182.439 C 288.401 180.280,287.881 172.085,286.491 169.400 C 284.311 165.189,280.317 161.057,277.600 160.202 C 277.050 160.030,275.973 159.553,275.206 159.144 C 273.438 158.201,266.034 158.074,264.339 158.959 M180.744 159.609 C 181.703 160.044,182.907 160.400,183.420 160.400 C 183.933 160.400,184.469 160.587,184.610 160.816 C 184.751 161.045,185.527 161.654,186.334 162.168 C 192.922 166.373,196.396 179.007,192.449 184.408 C 192.044 184.962,191.593 185.793,191.446 186.255 C 191.299 186.717,190.824 187.416,190.390 187.809 C 189.955 188.202,189.600 188.766,189.600 189.062 C 189.600 189.358,189.352 189.600,189.049 189.600 C 188.746 189.600,188.270 189.875,187.991 190.211 C 187.154 191.220,184.047 193.176,182.886 193.425 C 182.289 193.553,181.170 193.920,180.400 194.239 C 177.982 195.243,126.528 194.856,123.800 193.813 C 121.613 192.978,118.210 190.913,117.091 189.742 C 115.697 188.284,114.000 185.881,114.000 185.365 C 114.000 185.076,113.742 184.695,113.427 184.519 C 112.575 184.042,111.532 177.042,112.008 175.000 C 112.213 174.120,112.388 172.860,112.396 172.200 C 112.405 171.540,112.668 170.550,112.982 170.000 C 113.295 169.450,113.811 168.460,114.127 167.800 C 114.752 166.497,118.455 162.400,119.008 162.400 C 119.195 162.400,119.748 162.025,120.236 161.567 C 120.723 161.108,121.725 160.580,122.461 160.394 C 123.198 160.207,124.520 159.780,125.400 159.445 C 128.196 158.379,178.362 158.528,180.744 159.609 M275.600 160.011 C 277.030 160.536,278.380 161.162,278.600 161.403 C 278.820 161.645,279.759 162.348,280.688 162.967 C 281.616 163.585,282.483 164.431,282.615 164.846 C 282.746 165.261,283.004 165.600,283.187 165.600 C 284.306 165.600,287.102 172.306,287.459 175.846 C 288.021 181.417,283.935 189.250,279.000 192.063 C 274.718 194.503,274.240 194.580,262.511 194.707 L 251.621 194.825 251.384 193.880 C 250.967 192.217,251.365 173.367,251.830 172.761 C 252.066 172.452,252.480 171.430,252.749 170.489 C 253.257 168.714,254.360 166.869,255.902 165.213 C 256.396 164.683,256.800 164.139,256.800 164.004 C 256.800 163.870,257.610 163.248,258.600 162.622 C 259.590 161.996,260.400 161.338,260.400 161.160 C 260.400 160.982,261.075 160.714,261.900 160.565 C 262.725 160.415,264.030 159.958,264.800 159.550 C 266.798 158.489,272.064 158.714,275.600 160.011 M124.400 205.765 C 120.015 207.258,115.392 210.689,113.989 213.493 C 113.684 214.102,113.229 214.870,112.978 215.200 C 112.726 215.530,112.098 217.470,111.582 219.511 L 110.644 223.223 111.545 227.219 C 116.110 247.457,145.203 246.700,147.975 226.271 C 148.508 222.346,148.534 207.204,148.010 205.826 L 147.620 204.800 137.310 204.840 C 127.779 204.877,126.804 204.947,124.400 205.765 M170.758 205.746 C 163.501 208.510,159.082 213.456,158.026 220.000 C 157.428 223.701,157.455 270.495,158.056 273.967 C 160.890 290.324,183.999 293.819,192.464 279.171 C 196.147 272.798,196.419 220.589,192.797 215.200 C 192.428 214.650,191.620 213.432,191.003 212.493 C 189.708 210.523,187.046 208.000,186.261 208.000 C 185.966 208.000,185.414 207.658,185.036 207.240 C 184.657 206.821,183.691 206.356,182.888 206.205 C 182.085 206.055,180.935 205.677,180.334 205.366 C 178.659 204.500,173.492 204.705,170.758 205.746 M217.558 205.743 C 212.900 207.523,210.508 209.291,207.364 213.277 C 204.352 217.094,203.426 226.239,205.608 230.600 C 208.081 235.540,210.668 238.220,215.118 240.454 L 217.800 241.800 246.044 241.800 L 274.289 241.800 276.839 240.600 C 292.518 233.223,291.521 212.089,275.200 205.861 C 271.704 204.527,221.013 204.423,217.558 205.743 M147.210 206.226 C 148.256 208.978,147.454 229.014,146.244 230.351 C 145.890 230.743,145.600 231.347,145.600 231.694 C 145.600 232.384,141.612 237.553,141.058 237.582 C 140.870 237.592,140.181 238.050,139.527 238.600 C 138.873 239.150,138.075 239.600,137.753 239.600 C 137.431 239.600,136.425 239.979,135.517 240.442 C 133.319 241.564,128.529 241.870,125.800 241.065 C 122.500 240.091,120.453 239.246,119.590 238.503 C 117.532 236.731,114.400 233.393,114.400 232.973 C 114.400 232.717,114.032 232.040,113.581 231.467 C 111.325 228.599,111.476 219.271,113.847 215.028 C 114.996 212.972,119.379 208.400,120.201 208.400 C 120.463 208.400,121.088 208.044,121.590 207.608 C 122.092 207.173,123.155 206.718,123.951 206.597 C 124.748 206.477,126.120 206.126,127.000 205.818 C 128.179 205.406,130.998 205.251,137.710 205.229 L 146.820 205.200 147.210 206.226 M178.486 205.764 C 179.429 206.075,180.983 206.453,181.940 206.606 C 182.897 206.759,183.972 207.225,184.329 207.642 C 184.686 208.059,185.274 208.400,185.637 208.400 C 186.453 208.400,191.600 213.484,191.600 214.290 C 191.600 214.613,191.951 215.370,192.381 215.973 C 193.816 217.988,193.994 221.373,193.985 246.400 C 193.975 271.540,193.780 275.429,192.417 277.665 C 191.969 278.399,191.602 279.217,191.601 279.482 C 191.600 280.085,185.971 285.600,185.358 285.600 C 185.225 285.600,184.190 286.067,183.058 286.639 C 181.183 287.585,180.573 287.678,176.200 287.678 C 171.827 287.678,171.217 287.585,169.342 286.639 C 168.210 286.067,167.114 285.600,166.906 285.600 C 165.984 285.600,160.843 280.019,160.448 278.589 C 160.223 277.773,159.715 276.748,159.319 276.311 C 158.641 275.561,158.600 273.881,158.600 246.858 L 158.600 218.200 159.500 216.938 C 159.995 216.244,160.400 215.428,160.400 215.125 C 160.400 214.014,165.608 208.408,166.646 208.402 C 166.891 208.401,167.542 208.046,168.092 207.613 C 168.642 207.181,169.846 206.706,170.768 206.559 C 171.689 206.411,173.109 206.053,173.922 205.763 C 175.830 205.081,176.412 205.082,178.486 205.764 M272.904 206.000 C 274.156 206.440,275.471 206.800,275.827 206.800 C 276.183 206.800,276.931 207.160,277.491 207.600 C 278.050 208.040,278.739 208.400,279.022 208.400 C 281.827 208.400,287.588 218.568,287.607 223.551 C 287.615 225.616,285.683 232.023,284.903 232.520 C 284.626 232.696,284.395 233.056,284.388 233.320 C 284.335 235.498,277.947 239.848,272.800 241.210 C 271.004 241.686,221.473 241.701,219.600 241.226 C 214.380 239.905,210.679 237.547,208.574 234.200 C 208.159 233.540,207.590 232.856,207.310 232.680 C 207.029 232.504,206.800 232.047,206.800 231.665 C 206.800 231.282,206.425 230.256,205.967 229.385 C 203.978 225.604,204.892 218.914,208.171 213.256 C 208.872 212.046,212.684 208.400,213.248 208.400 C 213.484 208.400,214.154 208.061,214.738 207.647 C 215.322 207.233,216.790 206.688,218.000 206.436 C 219.210 206.185,220.470 205.806,220.800 205.596 C 222.150 204.733,270.364 205.107,272.904 206.000 M204.831 251.762 C 203.891 252.895,204.225 273.503,205.227 276.181 C 210.633 290.629,229.895 293.041,238.381 280.333 C 239.272 279.000,240.006 277.614,240.014 277.254 C 240.021 276.894,240.375 275.880,240.800 275.000 C 244.452 267.440,237.674 255.190,228.213 252.250 C 224.766 251.179,205.646 250.780,204.831 251.762 M230.400 253.869 C 236.445 256.821,238.950 260.325,240.819 268.449 C 241.294 270.516,239.807 277.466,238.605 278.795 C 238.272 279.162,238.000 279.647,238.000 279.871 C 238.000 280.518,232.600 285.484,231.550 285.803 C 231.027 285.961,230.014 286.446,229.297 286.880 C 226.197 288.757,215.216 287.597,213.200 285.180 C 213.090 285.048,212.460 284.626,211.800 284.241 C 210.452 283.457,207.076 279.131,206.617 277.600 C 206.452 277.050,206.031 276.150,205.682 275.600 C 205.003 274.529,204.393 255.674,204.965 253.398 L 205.231 252.335 216.516 252.468 L 227.800 252.600 230.400 253.869 " stroke="none" fill="#9c9c9c" fill-rule="evenodd"></path><path id="path3" d="M175.100 111.882 C 175.595 111.978,176.405 111.978,176.900 111.882 C 177.395 111.787,176.990 111.709,176.000 111.709 C 175.010 111.709,174.605 111.787,175.100 111.882 M222.305 111.883 C 222.802 111.979,223.522 111.975,223.905 111.875 C 224.287 111.775,223.880 111.696,223.000 111.701 C 222.120 111.705,221.807 111.787,222.305 111.883 M165.903 114.500 C 165.385 114.995,165.240 115.200,165.580 114.956 C 165.921 114.712,166.560 114.312,167.000 114.068 C 167.440 113.824,167.585 113.619,167.322 113.612 C 167.060 113.605,166.421 114.005,165.903 114.500 M209.600 117.000 C 208.628 117.990,207.923 118.800,208.033 118.800 C 208.143 118.800,209.028 117.990,210.000 117.000 C 210.972 116.010,211.677 115.200,211.567 115.200 C 211.457 115.200,210.572 116.010,209.600 117.000 M162.975 116.900 L 161.800 118.200 163.100 117.025 C 164.312 115.930,164.584 115.600,164.275 115.600 C 164.206 115.600,163.621 116.185,162.975 116.900 M204.789 124.421 C 204.547 124.872,204.406 125.514,204.475 125.846 C 204.544 126.179,204.798 125.809,205.040 125.025 C 205.535 123.423,205.442 123.200,204.789 124.421 M204.189 153.600 C 204.189 167.790,204.239 173.595,204.300 166.500 C 204.361 159.405,204.361 147.795,204.300 140.700 C 204.239 133.605,204.189 139.410,204.189 153.600 M241.788 153.600 C 241.788 167.130,241.838 172.665,241.900 165.900 C 241.961 159.135,241.961 148.065,241.900 141.300 C 241.838 134.535,241.788 140.070,241.788 153.600 M139.700 158.300 C 146.905 158.361,158.695 158.361,165.900 158.300 C 173.105 158.239,167.210 158.189,152.800 158.189 C 138.390 158.189,132.495 158.239,139.700 158.300 M267.700 158.291 C 268.525 158.378,269.875 158.378,270.700 158.291 C 271.525 158.205,270.850 158.134,269.200 158.134 C 267.550 158.134,266.875 158.205,267.700 158.291 M263.424 159.013 C 262.425 159.768,262.795 159.763,264.254 159.002 C 264.884 158.674,265.130 158.410,264.800 158.415 C 264.470 158.421,263.851 158.690,263.424 159.013 M116.575 163.300 L 115.400 164.600 116.700 163.425 C 117.415 162.779,118.000 162.194,118.000 162.125 C 118.000 161.816,117.670 162.088,116.575 163.300 M254.929 164.900 C 254.484 165.395,253.976 166.070,253.801 166.400 C 253.463 167.037,253.555 166.950,255.176 165.100 C 255.706 164.495,256.049 164.000,255.939 164.000 C 255.829 164.000,255.375 164.405,254.929 164.900 M283.983 165.500 C 284.726 166.435,285.406 167.200,285.494 167.200 C 285.777 167.200,284.063 164.949,283.335 164.364 C 282.948 164.054,283.240 164.565,283.983 165.500 M194.920 176.800 C 194.920 178.010,194.995 178.505,195.087 177.900 C 195.178 177.295,195.178 176.305,195.087 175.700 C 194.995 175.095,194.920 175.590,194.920 176.800 M110.501 177.000 C 110.505 177.880,110.587 178.193,110.683 177.695 C 110.779 177.198,110.775 176.478,110.675 176.095 C 110.575 175.713,110.496 176.120,110.501 177.000 M250.572 185.200 C 250.572 190.370,250.629 192.485,250.699 189.900 C 250.768 187.315,250.768 183.085,250.699 180.500 C 250.629 177.915,250.572 180.030,250.572 185.200 M204.434 181.424 C 204.415 181.876,204.683 182.596,205.030 183.024 C 205.376 183.451,205.537 183.561,205.387 183.269 C 205.237 182.976,204.969 182.256,204.791 181.669 C 204.533 180.811,204.462 180.763,204.434 181.424 M191.289 187.517 L 190.379 189.000 191.389 187.878 C 191.945 187.260,192.400 186.585,192.400 186.378 C 192.400 185.790,192.265 185.928,191.289 187.517 M207.600 187.864 C 207.600 188.082,208.095 188.697,208.700 189.230 L 209.800 190.200 208.800 189.000 C 208.250 188.340,207.755 187.725,207.700 187.633 C 207.645 187.542,207.600 187.645,207.600 187.864 M282.975 189.700 L 281.800 191.000 283.100 189.825 C 283.815 189.179,284.400 188.594,284.400 188.525 C 284.400 188.216,284.070 188.488,282.975 189.700 M180.400 195.025 C 179.509 195.362,179.291 195.558,179.800 195.563 C 180.240 195.568,181.050 195.314,181.600 195.000 C 182.822 194.301,182.283 194.313,180.400 195.025 M273.600 195.025 C 272.709 195.362,272.491 195.558,273.000 195.563 C 273.440 195.568,274.250 195.314,274.800 195.000 C 276.022 194.301,275.483 194.313,273.600 195.025 M133.123 204.699 C 135.831 204.768,140.151 204.768,142.723 204.699 C 145.295 204.629,143.080 204.572,137.800 204.573 C 132.520 204.573,130.415 204.630,133.123 204.699 M175.100 204.682 C 175.595 204.778,176.405 204.778,176.900 204.682 C 177.395 204.587,176.990 204.509,176.000 204.509 C 175.010 204.509,174.605 204.587,175.100 204.682 M233.700 204.700 C 240.685 204.761,252.115 204.761,259.100 204.700 C 266.085 204.639,260.370 204.588,246.400 204.588 C 232.430 204.588,226.715 204.639,233.700 204.700 M148.567 216.000 C 148.567 220.290,148.626 222.045,148.698 219.900 C 148.770 217.755,148.770 214.245,148.698 212.100 C 148.626 209.955,148.567 211.710,148.567 216.000 M116.000 210.600 C 115.028 211.590,114.323 212.400,114.433 212.400 C 114.543 212.400,115.428 211.590,116.400 210.600 C 117.372 209.610,118.077 208.800,117.967 208.800 C 117.857 208.800,116.972 209.610,116.000 210.600 M162.575 210.500 L 161.400 211.800 162.700 210.625 C 163.912 209.530,164.184 209.200,163.875 209.200 C 163.806 209.200,163.221 209.785,162.575 210.500 M209.178 210.700 L 207.800 212.200 209.300 210.822 C 210.696 209.538,210.984 209.200,210.678 209.200 C 210.612 209.200,209.937 209.875,209.178 210.700 M191.044 212.380 C 191.288 212.721,191.688 213.360,191.932 213.800 C 192.176 214.240,192.381 214.385,192.388 214.122 C 192.395 213.860,191.995 213.221,191.500 212.703 C 191.005 212.185,190.800 212.040,191.044 212.380 M194.914 223.000 C 194.917 224.100,194.995 224.503,195.087 223.895 C 195.179 223.286,195.177 222.386,195.082 221.895 C 194.987 221.403,194.911 221.900,194.914 223.000 M204.120 223.600 C 204.120 224.810,204.195 225.305,204.287 224.700 C 204.378 224.095,204.378 223.105,204.287 222.500 C 204.195 221.895,204.120 222.390,204.120 223.600 M110.493 223.200 C 110.493 223.970,110.575 224.285,110.676 223.900 C 110.776 223.515,110.776 222.885,110.676 222.500 C 110.575 222.115,110.493 222.430,110.493 223.200 M157.388 247.200 C 157.388 260.510,157.438 265.955,157.500 259.300 C 157.561 252.645,157.561 241.755,157.500 235.100 C 157.438 228.445,157.388 233.890,157.388 247.200 M148.093 225.600 C 148.093 226.370,148.175 226.685,148.276 226.300 C 148.376 225.915,148.376 225.285,148.276 224.900 C 148.175 224.515,148.093 224.830,148.093 225.600 M286.865 229.817 C 286.195 231.288,286.323 231.602,287.047 230.265 C 287.386 229.640,287.588 229.054,287.496 228.963 C 287.405 228.871,287.121 229.256,286.865 229.817 M209.600 237.000 C 210.346 237.770,211.047 238.400,211.157 238.400 C 211.267 238.400,210.746 237.770,210.000 237.000 C 209.254 236.230,208.553 235.600,208.443 235.600 C 208.333 235.600,208.854 236.230,209.600 237.000 M115.600 236.125 C 115.600 236.194,116.185 236.779,116.900 237.425 L 118.200 238.600 117.025 237.300 C 115.930 236.088,115.600 235.816,115.600 236.125 M128.291 242.289 C 129.001 242.377,130.261 242.379,131.091 242.292 C 131.921 242.205,131.340 242.133,129.800 242.131 C 128.260 242.129,127.581 242.200,128.291 242.289 M233.329 242.300 C 240.550 242.361,252.250 242.361,259.329 242.300 C 266.408 242.239,260.500 242.189,246.200 242.189 C 231.900 242.189,226.108 242.239,233.329 242.300 M204.749 251.500 C 204.264 252.118,204.274 252.142,204.832 251.708 C 205.279 251.359,208.138 251.182,214.632 251.100 L 223.800 250.984 214.549 250.892 C 206.148 250.808,205.247 250.864,204.749 251.500 M204.172 263.400 C 204.172 268.460,204.229 270.475,204.299 267.877 C 204.369 265.280,204.368 261.140,204.298 258.677 C 204.228 256.215,204.171 258.340,204.172 263.400 M237.135 258.200 C 239.407 261.231,239.693 261.532,238.803 259.956 C 238.354 259.162,237.593 258.172,237.111 257.756 C 236.237 257.002,236.237 257.003,237.135 258.200 M194.901 271.000 C 194.905 271.880,194.987 272.193,195.083 271.695 C 195.179 271.198,195.175 270.478,195.075 270.095 C 194.975 269.713,194.896 270.120,194.901 271.000 M162.800 283.400 C 163.546 284.170,164.247 284.800,164.357 284.800 C 164.467 284.800,163.946 284.170,163.200 283.400 C 162.454 282.630,161.753 282.000,161.643 282.000 C 161.533 282.000,162.054 282.630,162.800 283.400 M188.975 283.700 L 187.800 285.000 189.100 283.825 C 190.312 282.730,190.584 282.400,190.275 282.400 C 190.206 282.400,189.621 282.985,188.975 283.700 M174.500 288.676 C 174.885 288.776,175.515 288.776,175.900 288.676 C 176.285 288.575,175.970 288.493,175.200 288.493 C 174.430 288.493,174.115 288.575,174.500 288.676 " stroke="none" fill="#848484" fill-rule="evenodd"></path><path id="path4" d="M169.341 111.997 C 168.868 112.188,168.371 112.523,168.236 112.741 C 168.101 112.960,167.494 113.247,166.888 113.381 C 165.676 113.647,161.600 117.123,161.600 117.891 C 161.600 118.155,161.254 118.557,160.832 118.783 C 160.410 119.009,159.856 119.825,159.601 120.597 C 159.346 121.369,158.990 122.000,158.808 122.000 C 158.322 122.000,157.595 124.330,157.634 125.760 C 157.661 126.740,157.777 126.550,158.187 124.852 C 158.473 123.671,158.873 122.591,159.076 122.452 C 159.279 122.314,159.693 121.588,159.996 120.841 C 160.713 119.069,165.704 114.088,167.108 113.742 C 167.709 113.594,168.611 113.208,169.112 112.883 C 169.614 112.558,171.054 112.160,172.312 111.998 L 174.600 111.705 172.400 111.678 C 171.190 111.663,169.813 111.807,169.341 111.997 M179.800 111.991 C 183.849 112.466,188.122 115.081,191.174 118.955 C 191.918 119.899,192.400 120.258,192.400 119.869 C 192.400 119.517,192.040 119.035,191.600 118.800 C 191.160 118.565,190.800 118.141,190.800 117.858 C 190.800 117.063,187.804 114.614,185.200 113.280 C 184.650 112.999,183.750 112.508,183.200 112.190 C 182.596 111.841,181.250 111.631,179.800 111.661 L 177.400 111.709 179.800 111.991 M215.554 112.345 C 215.029 112.755,214.150 113.229,213.600 113.400 C 213.050 113.570,212.112 114.118,211.515 114.616 C 210.918 115.115,210.281 115.586,210.100 115.662 C 209.919 115.738,209.147 116.606,208.385 117.590 C 207.623 118.575,206.787 119.611,206.526 119.892 C 206.266 120.174,205.929 120.809,205.779 121.302 C 205.628 121.796,205.264 122.476,204.970 122.812 C 202.303 125.863,202.357 181.470,205.030 184.431 C 205.344 184.779,205.600 185.210,205.600 185.390 C 205.600 186.731,210.928 192.800,212.105 192.800 C 212.381 192.800,212.832 193.160,213.107 193.600 C 213.383 194.042,214.040 194.400,214.575 194.400 C 215.107 194.400,215.834 194.691,216.189 195.046 C 217.578 196.435,227.819 196.512,229.465 195.146 C 230.355 194.408,229.837 194.342,228.274 194.995 C 222.062 197.591,210.797 193.568,207.378 187.533 C 207.087 187.020,206.253 185.520,205.525 184.200 L 204.200 181.800 204.200 153.600 L 204.200 125.400 205.786 122.400 C 208.813 116.677,214.140 112.583,219.332 111.991 L 221.800 111.709 219.154 111.655 C 217.122 111.613,216.287 111.773,215.554 112.345 M226.600 111.990 C 231.458 112.556,236.613 116.329,239.300 121.283 C 240.194 122.930,240.400 123.124,240.400 122.317 C 240.400 121.771,240.040 120.998,239.600 120.600 C 239.160 120.202,238.795 119.679,238.789 119.438 C 238.761 118.384,234.534 114.544,232.000 113.271 C 231.450 112.994,230.550 112.508,230.000 112.190 C 229.396 111.841,228.050 111.631,226.600 111.661 L 224.200 111.709 226.600 111.990 M192.413 120.969 C 192.406 121.171,192.647 121.621,192.948 121.969 C 193.249 122.316,193.685 123.140,193.916 123.800 L 194.337 125.000 194.368 123.922 C 194.386 123.310,193.973 122.360,193.413 121.722 C 192.870 121.105,192.420 120.766,192.413 120.969 M240.400 123.766 C 240.400 123.917,240.715 124.616,241.100 125.320 C 241.747 126.503,241.800 128.641,241.800 153.618 C 241.800 178.675,241.749 180.713,241.100 181.704 C 240.715 182.291,240.403 183.003,240.407 183.286 C 240.410 183.569,240.815 183.172,241.307 182.404 L 242.200 181.008 242.200 153.394 L 242.200 125.780 241.300 124.636 C 240.805 124.007,240.400 123.615,240.400 123.766 M194.660 126.600 C 194.847 127.480,195.000 132.785,195.000 138.388 L 195.000 148.576 194.000 149.082 L 193.000 149.588 194.110 149.594 C 195.932 149.604,196.091 148.514,195.927 137.195 C 195.795 128.091,195.700 126.883,195.049 125.995 L 194.319 125.000 194.660 126.600 M156.755 128.300 C 156.307 129.461,156.567 132.727,157.155 133.315 C 157.351 133.511,157.508 132.256,157.516 130.431 C 157.531 126.941,157.411 126.603,156.755 128.300 M157.765 135.725 C 157.854 136.925,158.206 137.979,158.701 138.525 C 159.138 139.006,159.607 139.874,159.744 140.454 C 160.001 141.547,163.866 145.602,165.607 146.606 C 166.153 146.921,167.230 147.459,168.000 147.802 C 168.770 148.145,169.878 148.689,170.462 149.013 C 171.330 149.493,173.407 149.585,181.862 149.519 L 192.200 149.438 182.000 149.198 C 173.247 148.992,171.545 148.851,170.000 148.201 C 165.659 146.374,161.505 142.926,160.163 140.035 C 159.797 139.246,159.268 138.330,158.987 138.000 C 158.706 137.670,158.284 136.590,158.049 135.600 L 157.622 133.800 157.765 135.725 M125.019 157.888 C 124.370 157.987,123.401 158.413,122.865 158.834 C 122.330 159.255,121.570 159.600,121.177 159.600 C 120.783 159.600,119.927 160.050,119.273 160.600 C 118.619 161.150,117.956 161.600,117.800 161.600 C 117.307 161.600,113.613 165.730,113.342 166.583 C 113.200 167.031,112.828 167.584,112.515 167.812 C 112.203 168.041,111.873 169.032,111.783 170.014 L 111.620 171.800 112.033 170.100 C 112.261 169.165,112.604 168.400,112.797 168.400 C 112.989 168.400,113.274 167.997,113.431 167.503 C 114.091 165.421,119.884 160.000,121.447 160.000 C 121.648 160.000,122.529 159.595,123.406 159.100 L 125.000 158.200 152.800 158.200 C 178.949 158.200,180.679 158.243,181.937 158.929 C 183.597 159.835,184.073 159.528,182.553 158.532 C 181.481 157.829,129.220 157.244,125.019 157.888 M264.150 158.014 C 263.463 158.225,262.676 158.668,262.401 158.998 C 261.725 159.813,262.398 159.759,263.611 158.900 C 265.084 157.858,273.753 157.884,275.358 158.936 C 275.969 159.336,276.559 159.574,276.669 159.464 C 277.955 158.178,267.551 156.973,264.150 158.014 M185.000 160.177 C 187.479 161.304,192.357 166.120,192.389 167.471 C 192.395 167.731,192.694 168.237,193.054 168.597 C 195.343 170.885,195.462 181.693,193.234 184.808 C 192.837 185.362,192.389 186.204,192.239 186.678 C 191.655 188.518,187.389 192.224,183.886 193.935 L 180.478 195.600 153.170 195.600 L 125.863 195.600 123.329 194.586 C 117.746 192.353,113.062 187.735,111.981 183.400 L 111.682 182.200 111.641 183.422 C 111.617 184.150,112.005 185.193,112.600 186.000 C 113.150 186.745,113.600 187.512,113.600 187.704 C 113.600 188.168,117.847 192.400,118.312 192.400 C 118.512 192.400,118.998 192.755,119.391 193.190 C 119.784 193.624,120.487 194.091,120.953 194.227 C 121.419 194.363,122.610 194.862,123.600 195.337 C 125.390 196.195,125.552 196.200,153.000 196.200 L 180.600 196.200 182.312 195.300 C 183.254 194.805,184.244 194.400,184.512 194.400 C 184.781 194.399,185.523 193.949,186.162 193.400 C 186.801 192.850,187.554 192.400,187.835 192.400 C 188.116 192.400,188.457 192.049,188.594 191.620 C 188.730 191.192,189.192 190.730,189.620 190.594 C 190.049 190.457,190.400 190.177,190.400 189.970 C 190.400 189.764,190.835 189.216,191.368 188.753 C 191.900 188.291,192.444 187.477,192.578 186.946 C 192.711 186.414,193.176 185.624,193.610 185.190 C 194.045 184.755,194.400 184.034,194.400 183.587 C 194.400 183.140,194.681 182.105,195.024 181.287 C 195.868 179.276,195.861 173.508,195.014 172.298 C 194.676 171.816,194.400 170.922,194.400 170.311 C 194.400 169.700,194.045 168.845,193.610 168.410 C 193.176 167.976,192.711 167.186,192.578 166.654 C 192.444 166.123,191.922 165.328,191.416 164.889 C 190.910 164.449,190.430 163.929,190.348 163.733 C 189.999 162.896,185.451 159.601,184.663 159.616 C 183.934 159.629,183.987 159.716,185.000 160.177 M259.200 160.400 C 258.760 160.840,258.259 161.200,258.086 161.200 C 257.590 161.200,253.600 165.374,253.600 165.893 C 253.600 166.150,253.375 166.504,253.100 166.680 C 251.917 167.437,250.399 171.581,250.452 173.909 L 250.505 176.200 250.806 173.838 C 251.422 169.009,256.456 161.958,260.564 160.169 C 261.630 159.705,261.676 159.629,260.900 159.616 C 260.405 159.607,259.640 159.960,259.200 160.400 M278.000 160.077 C 280.545 161.333,283.512 164.092,285.679 167.220 C 286.140 167.885,286.365 168.004,286.379 167.589 C 286.391 167.253,286.085 166.675,285.700 166.306 C 285.315 165.936,284.370 164.851,283.600 163.893 C 281.926 161.810,279.632 160.101,278.108 159.801 L 277.000 159.583 278.000 160.077 M286.414 168.622 C 286.421 168.830,286.775 169.720,287.200 170.600 C 290.287 176.992,286.674 188.092,280.152 192.247 C 279.518 192.651,278.910 193.082,278.800 193.204 C 278.690 193.326,277.430 193.916,276.000 194.514 L 273.400 195.602 262.320 195.601 C 252.190 195.600,251.205 195.540,250.832 194.900 C 250.475 194.286,250.423 194.280,250.412 194.851 C 250.383 196.411,251.166 196.504,262.700 196.320 L 273.800 196.143 276.568 194.832 C 278.091 194.111,279.589 193.268,279.897 192.960 C 280.205 192.652,280.619 192.400,280.816 192.400 C 281.158 192.400,284.416 189.248,285.524 187.846 C 285.812 187.481,286.246 186.602,286.488 185.891 C 286.730 185.181,287.259 184.171,287.664 183.646 C 288.948 181.982,288.750 171.430,287.400 169.600 C 286.850 168.855,286.406 168.415,286.414 168.622 M110.796 172.605 C 109.913 173.668,109.789 178.833,110.604 180.551 C 111.605 182.661,111.786 182.059,110.948 179.403 C 110.279 177.281,110.275 176.979,110.879 174.668 C 111.585 171.967,111.573 171.668,110.796 172.605 M250.170 185.200 C 250.170 189.930,250.228 191.865,250.298 189.500 C 250.369 187.135,250.369 183.265,250.298 180.900 C 250.228 178.535,250.170 180.470,250.170 185.200 M239.247 186.046 C 238.018 188.500,235.805 190.785,232.710 192.796 C 231.352 193.678,230.533 194.400,230.890 194.400 C 231.247 194.400,232.073 193.950,232.727 193.400 C 233.381 192.850,234.113 192.400,234.354 192.400 C 234.596 192.400,235.018 192.040,235.293 191.600 C 235.568 191.160,235.974 190.800,236.196 190.800 C 236.624 190.800,238.800 188.249,238.800 187.747 C 238.800 187.585,239.175 187.053,239.633 186.565 C 240.091 186.077,240.406 185.333,240.333 184.910 C 240.236 184.349,239.944 184.653,239.247 186.046 M138.281 204.386 C 145.123 204.544,147.698 204.737,148.081 205.120 C 148.847 205.886,148.809 224.040,148.034 227.600 C 147.096 231.913,141.239 240.000,139.053 240.000 C 138.787 240.000,137.856 240.371,136.985 240.824 C 136.113 241.278,134.680 241.798,133.800 241.981 C 132.318 242.288,132.292 242.316,133.440 242.356 C 134.860 242.406,137.200 241.682,137.200 241.193 C 137.200 241.012,137.785 240.741,138.500 240.591 C 139.823 240.313,140.175 240.054,143.000 237.285 C 145.053 235.273,146.400 233.635,146.400 233.150 C 146.400 232.940,146.743 232.280,147.163 231.684 C 147.582 231.088,148.048 229.880,148.198 229.000 C 148.349 228.120,148.664 227.168,148.898 226.884 C 149.445 226.222,149.800 213.797,149.417 208.695 C 149.049 203.781,149.530 203.972,137.840 204.086 L 129.000 204.171 138.281 204.386 M177.400 204.530 C 178.940 204.789,180.380 205.117,180.600 205.259 C 180.820 205.402,181.767 205.725,182.705 205.976 C 185.464 206.716,188.814 209.160,191.174 212.155 C 191.849 213.010,192.400 213.444,192.400 213.119 C 192.400 212.379,187.665 207.600,186.932 207.600 C 186.635 207.600,186.085 207.241,185.709 206.802 C 185.333 206.363,184.390 205.890,183.613 205.751 C 182.836 205.612,181.930 205.272,181.600 204.996 C 181.270 204.719,179.560 204.396,177.800 204.277 L 174.600 204.060 177.400 204.530 M234.100 204.300 C 240.865 204.361,251.935 204.361,258.700 204.300 C 265.465 204.238,259.930 204.188,246.400 204.188 C 232.870 204.188,227.335 204.238,234.100 204.300 M124.000 205.000 C 123.726 205.330,123.119 205.603,122.651 205.607 C 121.737 205.615,118.734 207.408,117.358 208.768 C 116.895 209.226,116.310 209.600,116.058 209.600 C 115.806 209.600,115.600 209.774,115.600 209.986 C 115.600 210.199,115.060 210.925,114.400 211.600 C 113.740 212.275,113.200 213.091,113.200 213.414 C 113.200 213.736,112.840 214.360,112.400 214.800 C 111.902 215.298,111.615 216.091,111.641 216.900 L 111.682 218.200 111.994 216.884 C 112.165 216.160,112.597 215.245,112.953 214.852 C 113.309 214.459,113.600 213.952,113.600 213.725 C 113.600 211.234,122.577 205.354,127.400 204.686 C 128.165 204.580,127.857 204.498,126.549 204.460 C 125.155 204.419,124.339 204.592,124.000 205.000 M170.719 204.939 C 170.422 205.235,169.512 205.603,168.695 205.756 C 167.757 205.932,167.039 206.359,166.747 206.917 C 166.305 207.760,166.318 207.770,167.042 207.137 C 167.459 206.773,168.610 206.260,169.600 205.998 C 170.590 205.736,171.580 205.375,171.800 205.196 C 172.020 205.017,172.740 204.792,173.400 204.695 C 174.381 204.552,174.294 204.509,172.929 204.460 C 171.985 204.426,171.023 204.635,170.719 204.939 M217.389 204.949 C 216.955 205.251,216.034 205.621,215.341 205.772 C 214.649 205.922,213.766 206.395,213.379 206.823 C 212.993 207.250,212.498 207.600,212.281 207.600 C 211.605 207.600,207.600 211.230,207.600 211.843 C 207.600 212.163,207.346 212.522,207.037 212.641 C 206.727 212.760,206.247 213.430,205.971 214.129 C 205.694 214.828,205.241 215.670,204.963 216.000 C 203.209 218.082,203.268 229.639,205.040 231.044 C 205.348 231.288,205.600 231.754,205.600 232.080 C 205.600 233.771,211.988 240.400,213.618 240.400 C 214.031 240.400,214.714 240.771,215.136 241.224 C 215.696 241.825,216.540 242.092,218.252 242.210 C 220.488 242.364,220.514 242.356,218.800 242.031 C 217.172 241.723,214.206 240.393,212.254 239.096 C 198.172 229.741,203.403 207.644,220.400 204.683 C 221.065 204.567,220.860 204.491,219.789 204.454 C 218.903 204.425,217.823 204.647,217.389 204.949 M272.200 204.667 C 272.640 204.763,273.360 204.999,273.800 205.193 C 274.240 205.386,275.298 205.758,276.151 206.020 C 279.856 207.156,283.807 210.726,286.310 215.200 L 286.869 216.200 286.605 215.000 C 286.460 214.340,285.994 213.428,285.570 212.974 C 285.147 212.520,284.800 211.972,284.800 211.755 C 284.800 211.539,284.248 210.921,283.573 210.381 C 282.898 209.842,281.966 208.995,281.501 208.500 C 281.036 208.005,280.489 207.600,280.286 207.600 C 280.082 207.600,279.381 207.150,278.727 206.600 C 278.073 206.050,277.147 205.594,276.669 205.587 C 276.191 205.580,275.451 205.310,275.024 204.987 C 274.596 204.664,273.606 204.421,272.824 204.446 C 272.041 204.472,271.760 204.571,272.200 204.667 M162.211 210.263 C 160.743 211.761,159.600 213.279,159.600 213.732 C 159.600 214.306,159.964 213.988,160.866 212.626 C 161.563 211.574,163.019 210.013,164.102 209.157 C 165.185 208.301,165.791 207.600,165.447 207.600 C 165.104 207.600,163.648 208.798,162.211 210.263 M192.400 214.210 C 192.400 214.390,192.671 214.837,193.003 215.203 C 195.032 217.445,195.227 220.483,195.084 247.622 C 195.010 261.580,194.817 273.540,194.655 274.200 L 194.360 275.400 195.080 274.200 C 196.175 272.375,196.194 221.320,195.100 219.320 C 194.715 218.616,194.400 217.590,194.400 217.040 C 194.400 216.491,193.950 215.556,193.400 214.962 C 192.850 214.369,192.400 214.030,192.400 214.210 M158.644 215.413 C 158.307 215.750,157.926 216.695,157.797 217.513 C 157.668 218.331,157.301 219.876,156.981 220.946 C 156.103 223.888,156.120 270.555,157.000 272.662 C 157.330 273.451,157.600 274.531,157.600 275.062 C 157.600 277.620,160.602 282.093,164.834 285.839 C 166.699 287.490,165.712 286.045,163.509 283.900 C 157.265 277.818,157.114 276.880,157.305 245.310 C 157.461 219.750,157.615 217.310,159.195 215.406 C 159.851 214.616,159.436 214.621,158.644 215.413 M286.800 216.554 C 286.800 216.639,287.069 217.224,287.398 217.854 C 288.217 219.426,288.233 227.468,287.420 229.413 C 286.813 230.867,287.271 231.363,287.986 230.026 C 289.041 228.055,288.357 216.400,287.186 216.400 C 286.974 216.400,286.800 216.469,286.800 216.554 M110.757 219.051 C 109.854 220.138,109.993 226.723,110.946 228.000 L 111.691 229.000 111.434 228.000 C 110.359 223.815,110.296 222.837,110.971 220.773 C 111.701 218.541,111.633 217.996,110.757 219.051 M111.636 230.279 C 111.612 231.125,111.939 231.924,112.600 232.638 C 113.150 233.231,113.600 233.922,113.600 234.174 C 113.600 235.238,118.957 240.022,120.798 240.602 C 121.348 240.775,121.996 241.188,122.239 241.520 C 122.525 241.913,123.507 242.165,125.040 242.241 C 127.036 242.340,127.153 242.312,125.800 242.061 C 120.262 241.033,113.469 235.222,112.046 230.295 L 111.672 229.000 111.636 230.279 M285.211 233.829 C 283.053 237.426,277.610 241.246,273.600 241.977 L 271.800 242.306 273.526 242.353 C 275.247 242.400,276.502 241.955,277.520 240.937 C 277.816 240.642,278.389 240.400,278.795 240.400 C 280.478 240.400,286.725 233.974,286.295 232.684 C 286.217 232.450,285.729 232.965,285.211 233.829 M129.105 242.683 C 129.602 242.779,130.322 242.775,130.705 242.675 C 131.087 242.575,130.680 242.496,129.800 242.501 C 128.920 242.505,128.607 242.587,129.105 242.683 M233.900 242.700 C 240.775 242.761,252.025 242.761,258.900 242.700 C 265.775 242.638,260.150 242.588,246.400 242.588 C 232.650 242.588,227.025 242.638,233.900 242.700 M204.560 250.690 C 202.446 252.178,202.777 275.012,204.950 277.586 C 205.235 277.924,205.694 278.772,205.971 279.471 C 206.247 280.170,206.727 280.840,207.037 280.959 C 207.346 281.078,207.600 281.418,207.600 281.715 C 207.600 282.013,208.050 282.647,208.600 283.125 C 209.150 283.603,209.600 284.176,209.600 284.397 C 209.600 284.619,209.860 284.800,210.177 284.800 C 210.495 284.800,210.998 285.147,211.295 285.572 C 211.593 285.996,212.309 286.462,212.888 286.608 C 213.467 286.753,214.252 287.216,214.633 287.636 C 215.088 288.139,215.815 288.386,216.762 288.359 L 218.200 288.318 217.000 288.008 C 215.601 287.646,212.176 285.833,211.370 285.027 C 211.064 284.722,210.673 284.410,210.499 284.336 C 209.725 284.002,206.763 279.965,205.558 277.600 L 204.232 275.000 204.074 263.893 C 203.936 254.135,203.996 252.666,204.568 251.793 L 205.218 250.800 214.110 250.800 C 223.491 250.800,229.747 251.723,231.573 253.376 C 231.953 253.719,232.394 254.000,232.555 254.000 C 233.757 254.000,237.763 258.100,239.300 260.904 C 240.105 262.372,240.400 262.671,240.400 262.019 C 240.400 260.431,234.203 253.600,232.763 253.600 C 232.390 253.600,231.995 253.364,231.884 253.076 C 231.774 252.787,230.900 252.319,229.942 252.034 C 228.984 251.750,227.948 251.311,227.639 251.059 C 226.989 250.527,205.284 250.180,204.560 250.690 M240.432 263.611 C 240.414 263.947,240.693 264.641,241.052 265.152 C 241.544 265.855,241.700 266.998,241.691 269.812 C 241.662 278.200,236.017 286.044,228.600 288.001 C 227.402 288.318,227.402 288.318,228.900 288.359 C 229.870 288.386,230.662 288.138,231.142 287.658 C 231.550 287.250,232.332 286.803,232.879 286.666 C 235.097 286.110,239.820 280.500,240.497 277.620 C 240.675 276.861,241.131 275.897,241.510 275.478 C 242.493 274.392,242.526 266.057,241.552 264.942 C 241.196 264.534,240.805 263.930,240.684 263.600 C 240.490 263.074,240.459 263.075,240.432 263.611 M193.774 277.000 C 193.629 277.770,193.342 278.400,193.135 278.400 C 192.928 278.400,192.500 279.020,192.183 279.778 C 190.956 282.715,186.307 286.560,182.400 287.869 L 181.000 288.339 182.246 288.369 C 182.931 288.386,183.921 288.065,184.446 287.655 C 184.971 287.245,185.769 286.795,186.219 286.654 C 186.670 286.513,187.930 285.521,189.019 284.450 C 191.813 281.703,192.400 281.004,192.400 280.424 C 192.400 280.144,192.850 279.381,193.400 278.727 C 193.950 278.073,194.400 277.102,194.400 276.569 C 194.400 275.160,194.077 275.382,193.774 277.000 M167.600 287.400 C 168.400 287.990,169.456 288.385,170.178 288.364 L 171.400 288.328 170.023 287.932 C 169.265 287.715,168.280 287.281,167.834 286.969 C 166.405 285.968,166.192 286.361,167.600 287.400 M172.628 288.739 C 173.053 288.815,173.571 289.040,173.780 289.239 C 174.323 289.755,177.154 289.674,178.817 289.094 C 180.111 288.643,179.868 288.600,176.046 288.600 C 173.742 288.600,172.204 288.662,172.628 288.739 M219.200 288.733 C 219.750 288.807,220.371 289.032,220.580 289.234 C 220.789 289.435,221.788 289.600,222.800 289.600 C 223.812 289.600,224.811 289.435,225.020 289.234 C 225.229 289.032,225.850 288.807,226.400 288.733 C 226.950 288.658,225.330 288.598,222.800 288.598 C 220.270 288.598,218.650 288.658,219.200 288.733 " stroke="none" fill="#747474" fill-rule="evenodd"></path></g></svg>